Land_normalized_pl06_filtered_grf
version=1
nRows=22
nColumns=37
inDegrees=yes
endheader
time		1_ground_force_vx		1_ground_force_vy		1_ground_force_vz		1_ground_force_px		1_ground_force_py		1_ground_force_pz		1_ground_torque_x		1_ground_torque_y		1_ground_torque_z		2_ground_force_vx		2_ground_force_vy		2_ground_force_vz		2_ground_force_px		2_ground_force_py		2_ground_force_pz		2_ground_torque_x		2_ground_torque_y		2_ground_torque_z		3_ground_force_vx		3_ground_force_vy		3_ground_force_vz		3_ground_force_px		3_ground_force_py		3_ground_force_pz		3_ground_torque_x		3_ground_torque_y		3_ground_torque_z		4_ground_force_vx		4_ground_force_vy		4_ground_force_vz		4_ground_force_px		4_ground_force_py		4_ground_force_pz		4_ground_torque_x		4_ground_torque_y		4_ground_torque_z		
0.990333		-65.283445		785.992000		163.173119		0.125558		0.000000		0.224159		-0.931750		11.217998		2.328879		47.928160		811.154338		166.233087		-0.124607		0.000000		0.225104		-0.125121		-2.117597		-0.433975		22.342950		1.039607		0.536981		0.375546		1.311042		1.913539		-0.106012		-0.004933		-0.002548		-18.714226		-0.906160		1.573935		-0.265227		1.310050		1.924501		0.012004		0.000581		-0.001010		
0.993490		-65.959469		784.010236		158.682686		0.125842		0.000000		0.224278		-0.929951		11.053624		2.237240		48.558589		807.752079		160.023558		-0.124919		0.000000		0.225515		-0.113546		-1.888799		-0.374190		22.297159		1.014560		0.479902		0.375538		1.311011		1.913570		-0.106412		-0.004842		-0.002290		-18.876289		-0.965509		1.658028		-0.265240		1.310055		1.924545		0.013749		0.000704		-0.001207		
0.996646		-65.641447		780.541934		154.771786		0.125971		0.000000		0.224261		-0.923183		10.977556		2.176713		49.720419		804.609119		153.774098		-0.125315		0.000000		0.225970		-0.099375		-1.608197		-0.307364		22.273096		0.952471		0.426257		0.375540		1.310996		1.913603		-0.107448		-0.004595		-0.002057		-19.034065		-1.018926		1.796412		-0.265255		1.310060		1.924591		0.014923		0.000799		-0.001408		
0.999803		-64.310118		775.808148		151.603704		0.125927		0.000000		0.224076		-0.912040		11.002462		2.150032		51.177012		801.411056		147.777313		-0.125750		0.000000		0.226418		-0.083141		-1.302020		-0.240100		22.264985		0.883643		0.398340		0.375553		1.310994		1.913640		-0.108669		-0.004313		-0.001944		-19.123114		-1.043737		1.964304		-0.265271		1.310067		1.924641		0.015474		0.000845		-0.001590		
1.002960		-62.014759		770.128936		149.216731		0.125719		0.000000		0.223753		-0.896882		11.137926		2.158034		52.738428		797.856382		142.305516		-0.126197		0.000000		0.226821		-0.065184		-0.986156		-0.175893		22.274739		0.844906		0.411499		0.375575		1.311001		1.913678		-0.109489		-0.004153		-0.002023		-19.104908		-1.018735		2.124375		-0.265288		1.310073		1.924692		0.015412		0.000822		-0.001714		
1.006116		-58.881871		763.825246		147.533781		0.125388		0.000000		0.223364		-0.876895		11.375315		2.197156		54.267916		793.680141		137.524465		-0.126642		0.000000		0.227169		-0.046357		-0.678028		-0.117491		22.310633		0.858298		0.471312		0.375600		1.311006		1.913713		-0.109346		-0.004207		-0.002310		-18.986338		-0.933938		2.240043		-0.265301		1.310079		1.924745		0.014799		0.000728		-0.001746		
1.009273		-55.110473		757.084224		146.425923		0.124977		0.000000		0.222970		-0.850972		11.690469		2.261029		55.670201		788.678888		133.414714		-0.127084		0.000000		0.227471		-0.028904		-0.409535		-0.069283		22.378631		0.918103		0.570972		0.375625		1.311002		1.913744		-0.107938		-0.004428		-0.002754		-18.820035		-0.798613		2.289604		-0.265312		1.310084		1.924792		0.013813		0.000586		-0.001681		
1.012429		-50.940070		749.873448		145.764618		0.124514		0.000000		0.222569		-0.818500		12.049014		2.342157		56.878530		782.710750		129.810432		-0.127520		0.000000		0.227755		-0.016226		-0.223293		-0.037034		22.470805		0.996521		0.689482		0.375647		1.310985		1.913768		-0.105387		-0.004673		-0.003234		-18.679145		-0.638976		2.274156		-0.265315		1.310089		1.924828		0.012746		0.000436		-0.001552		
1.015586		-46.636088		741.981142		145.395646		0.124007		0.000000		0.222111		-0.779670		12.404704		2.430779		57.845840		775.680948		126.522231		-0.127951		0.000000		0.228041		-0.011410		-0.153002		-0.024957		22.559917		1.060463		0.795388		0.375664		1.310956		1.913782		-0.102252		-0.004806		-0.003605		-18.626615		-0.487929		2.217101		-0.265311		1.310091		1.924850		0.011935		0.000312		-0.001421		
1.018742		-42.463582		733.153795		145.122066		0.123468		0.000000		0.221546		-0.736277		12.712400		2.516326		58.534916		767.539090		123.475349		-0.128364		0.000000		0.228319		-0.015269		-0.200197		-0.032205		22.608719		1.088853		0.858302		0.375676		1.310919		1.913786		-0.099382		-0.004786		-0.003773		-18.687958		-0.370788		2.152743		-0.265301		1.310092		1.924857		0.011645		0.000231		-0.001342		
1.021899		-38.634817		723.229917		144.756965		0.122921		0.000000		0.220875		-0.691890		12.952068		2.592404		58.890624		758.267920		120.790290		-0.128731		0.000000		0.228540		-0.025465		-0.327873		-0.052229		22.591586		1.080862		0.864473		0.375685		1.310879		1.913778		-0.097586		-0.004669		-0.003734		-18.840196		-0.294919		2.108496		-0.265289		1.310091		1.924851		0.012010		0.000188		-0.001345		
1.025056		-35.281246		712.188999		144.184770		0.122397		0.000000		0.220143		-0.650182		13.124663		2.657129		58.810419		747.880206		118.757860		-0.129002		0.000000		0.228613		-0.037347		-0.474932		-0.075416		22.510962		1.050799		0.822719		0.375687		1.310843		1.913758		-0.097313		-0.004542		-0.003556		-19.024038		-0.249977		2.092599		-0.265279		1.310088		1.924836		0.013084		0.000172		-0.001440		
1.028212		-32.458274		700.141597		143.369161		0.121926		0.000000		0.219412		-0.613320		13.229749		2.709082		58.149605		736.457156		117.719911		-0.129112		0.000000		0.228438		-0.045930		-0.581698		-0.092984		22.396827		1.016057		0.759529		0.375686		1.310818		1.913727		-0.098507		-0.004469		-0.003340		-19.171744		-0.214875		2.093253		-0.265273		1.310083		1.924814		0.014869		0.000167		-0.001623		
1.031369		-30.168712		687.277813		142.322065		0.121527		0.000000		0.218711		-0.582139		13.261859		2.746280		56.774366		724.195287		117.894194		-0.129007		0.000000		0.227940		-0.048401		-0.617388		-0.100507		22.288857		0.985991		0.706138		0.375680		1.310810		1.913692		-0.100709		-0.004455		-0.003191		-19.236906		-0.170662		2.091674		-0.265271		1.310077		1.924788		0.017202		0.000153		-0.001870		
1.034525		-28.390629		673.808368		141.068847		0.121203		0.000000		0.218033		-0.557324		13.227238		2.769261		54.630795		711.413453		119.249793		-0.128670		0.000000		0.227111		-0.045460		-0.591991		-0.099232		22.213996		0.959677		0.684780		0.375672		1.310823		1.913656		-0.103312		-0.004463		-0.003185		-19.205273		-0.113928		2.076750		-0.265270		1.310074		1.924759		0.019557		0.000116		-0.002115		
1.037682		-27.083704		659.955808		139.641296		0.120944		0.000000		0.217346		-0.539363		13.142818		2.780916		51.814410		698.534976		121.450849		-0.128132		0.000000		0.226022		-0.040782		-0.549794		-0.095590		22.174294		0.932842		0.698620		0.375661		1.310856		1.913627		-0.105751		-0.004449		-0.003332		-19.092197		-0.061700		2.050484		-0.265271		1.310072		1.924725		0.021035		0.000068		-0.002259		
1.040838		-26.189018		645.958902		138.071763		0.120738		0.000000		0.216622		-0.527787		13.018019		2.782564		48.580091		686.013347		123.925685		-0.127466		0.000000		0.224806		-0.038671		-0.546091		-0.098651		22.153327		0.907816		0.732070		0.375647		1.310900		1.913608		-0.107647		-0.004411		-0.003557		-18.936688		-0.041725		2.022849		-0.265271		1.310075		1.924687		0.020723		0.000046		-0.002214		
1.043995		-25.643434		632.069200		136.369404		0.120578		0.000000		0.215849		-0.521490		12.853875		2.773234		45.235828		674.256602		126.079573		-0.126750		0.000000		0.223608		-0.041572		-0.619639		-0.115867		22.135708		0.895679		0.760348		0.375632		1.310947		1.913596		-0.108801		-0.004402		-0.003737		-18.785942		-0.075332		2.001263		-0.265269		1.310082		1.924646		0.018134		0.000073		-0.001932		
1.047152		-25.379868		618.561415		134.493550		0.120455		0.000000		0.215033		-0.519571		12.663045		2.753321		42.021489		663.615070		127.486727		-0.126057		0.000000		0.222548		-0.049256		-0.777931		-0.149453		22.119214		0.909056		0.754799		0.375615		1.310983		1.913588		-0.109144		-0.004486		-0.003724		-18.676608		-0.165403		1.985031		-0.265267		1.310091		1.924603		0.013534		0.000120		-0.001438		
1.050308		-25.324489		605.723191		132.355117		0.120358		0.000000		0.214201		-0.521348		12.469841		2.724755		39.026706		654.365268		128.009751		-0.125435		0.000000		0.221695		-0.059465		-0.997148		-0.195071		22.114001		0.952308		0.695410		0.375598		1.311002		1.913578		-0.108694		-0.004680		-0.003418		-18.619637		-0.293729		1.966489		-0.265264		1.310101		1.924559		0.008030		0.000127		-0.000848		
1.053465		-25.408725		593.859295		129.844387		0.120297		0.000000		0.213407		-0.525766		12.288342		2.686785		36.219978		646.730480		127.711809		-0.124912		0.000000		0.221077		-0.069403		-1.239258		-0.244720		22.132074		1.017766		0.578944		0.375579		1.311000		1.913562		-0.107515		-0.004944		-0.002812		-18.602891		-0.432750		1.937754		-0.265261		1.310108		1.924513		0.003131		0.000073		-0.000326		
1.056621		-25.564342		583.284303		126.868262		0.120301		0.000000		0.212736		-0.531125		12.118325		2.635817		33.543399		640.850400		126.685933		-0.124501		0.000000		0.220703		-0.076889		-1.469045		-0.290406		22.176340		1.087550		0.421341		0.375558		1.310984		1.913538		-0.105780		-0.005188		-0.002010		-18.603842		-0.558104		1.897695		-0.265256		1.310110		1.924463		0.000099		0.000003		-0.000010		
